<svg width="24" height="46" viewBox="0 0 24 46" fill="none" xmlns="http://www.w3.org/2000/svg">
<path d="M12.0005 11L12.6285 11.0164L13.2549 11.0657L13.8778 11.1477L14.4955 11.2622L15.1064 11.4089L15.7088 11.5873L16.3011 11.7971L16.8815 12.0375L17.4486 12.308L18.0007 12.6078L18.5364 12.936L19.0542 13.2919L19.5526 13.6744L20.0304 14.0824L20.4861 14.5149L20.9186 14.9706L21.3266 15.4483L21.7091 15.9468L22.0649 16.4646L22.3932 17.0002L22.693 17.5524L22.9635 18.1195L23.2039 18.6999L23.4136 19.2921L23.5921 19.8945L23.7387 20.5054L23.8532 21.1232L23.9352 21.7461L23.9845 22.3724L24.001 23.0005L23.9845 23.6285L23.9352 24.2549L23.8532 24.8778L23.7387 25.4955L23.5921 26.1064L23.4136 26.7088L23.2039 27.3011L22.9635 27.8815L22.693 28.4486L22.3932 29.0007L22.0649 29.5364L21.7091 30.0542L21.3266 30.5526L20.9186 31.0304L20.4861 31.4861L20.0304 31.9186L19.5526 32.3266L19.0542 32.7091L18.5364 33.0649L18.0007 33.3932L17.4486 33.693L16.8815 33.9635L16.3011 34.2039L15.7088 34.4136L15.1064 34.5921L14.4955 34.7387L13.8778 34.8532L13.2549 34.9352L12.6285 34.9845L12.0005 35.001L11.3724 34.9845L10.7461 34.9352L10.1232 34.8532L9.50545 34.7387L8.89453 34.5921L8.29213 34.4136L7.6999 34.2039L7.11945 33.9635L6.55238 33.693L6.00024 33.3932L5.46455 33.0649L4.94678 32.7091L4.44834 32.3266L3.97059 31.9186L3.51486 31.4861L3.08239 31.0304L2.67436 30.5526L2.29189 30.0542L1.93603 29.5364L1.60776 29.0007L1.30797 28.4486L1.0375 27.8815L0.797068 27.3011L0.587346 26.7088L0.408907 26.1064L0.262239 25.4955L0.147746 24.8778L0.0657396 24.2549L0.0164461 23.6285L0 23.0005L0.0164461 22.3724L0.0657396 21.7461L0.147746 21.1232L0.262239 20.5054L0.408907 19.8945L0.587346 19.2921L0.797068 18.6999L1.0375 18.1195L1.30797 17.5524L1.60776 17.0002L1.93603 16.4646L2.29189 15.9468L2.67436 15.4483L3.08239 14.9706L3.51486 14.5149L3.97059 14.0824L4.44834 13.6744L4.94678 13.2919L5.46455 12.936L6.00024 12.6078L6.55238 12.308L7.11945 12.0375L7.6999 11.7971L8.29213 11.5873L8.89453 11.4089L9.50545 11.2622L10.1232 11.1477L10.7461 11.0657L11.3724 11.0164L12.0005 11Z" fill="#EFB921"/>
<path d="M11.3154 27.5234L5.82101 23.8327L7.29391 21.8531L10.74 24.1678L15.2113 18.1585L17.2596 19.5343L11.3154 27.5234Z" fill="#12110C"/>
</svg>
