<svg width="132" height="26" viewBox="0 0 132 26" fill="none" xmlns="http://www.w3.org/2000/svg">
<path d="M11.3986 3.90273C11.7977 2.67432 13.5356 2.67432 13.9347 3.90273L15.2112 7.83114C15.3897 8.3805 15.9016 8.75245 16.4792 8.75245L20.6098 8.75245C21.9014 8.75245 22.4385 10.4053 21.3935 11.1645L18.0518 13.5924C17.5845 13.9319 17.389 14.5337 17.5675 15.0831L18.8439 19.0115C19.243 20.2399 17.837 21.2614 16.7921 20.5022L13.4504 18.0743C12.9831 17.7348 12.3503 17.7348 11.883 18.0743L8.54125 20.5022C7.4963 21.2614 6.09033 20.2399 6.48946 19.0115L7.76588 15.0831C7.94438 14.5337 7.74883 13.9319 7.28152 13.5924L3.93982 11.1645C2.89486 10.4053 3.4319 8.75245 4.72353 8.75245L8.8541 8.75245C9.43174 8.75245 9.94368 8.3805 10.1222 7.83114L11.3986 3.90273Z" fill="#EFB921"/>
<path d="M38.0651 3.90273C38.4642 2.67432 40.2021 2.67432 40.6012 3.90273L41.8777 7.83114C42.0562 8.3805 42.5681 8.75245 43.1457 8.75245L47.2763 8.75245C48.5679 8.75245 49.105 10.4053 48.06 11.1645L44.7183 13.5924C44.251 13.9319 44.0555 14.5337 44.234 15.0831L45.5104 19.0115C45.9095 20.2399 44.5035 21.2614 43.4586 20.5022L40.1169 18.0743C39.6496 17.7348 39.0168 17.7348 38.5495 18.0743L35.2078 20.5022C34.1628 21.2614 32.7568 20.2399 33.156 19.0115L34.4324 15.0831C34.6109 14.5337 34.4153 13.9319 33.948 13.5924L30.6063 11.1645C29.5614 10.4053 30.0984 8.75245 31.39 8.75245L35.5206 8.75245C36.0982 8.75245 36.6102 8.3805 36.7887 7.83114L38.0651 3.90273Z" fill="#EFB921"/>
<path d="M64.7321 3.90273C65.1312 2.67432 66.8691 2.67432 67.2682 3.90273L68.5447 7.83114C68.7232 8.3805 69.2351 8.75245 69.8127 8.75245L73.9433 8.75245C75.2349 8.75245 75.772 10.4053 74.727 11.1645L71.3853 13.5924C70.918 13.9319 70.7225 14.5337 70.901 15.0831L72.1774 19.0115C72.5765 20.2399 71.1705 21.2614 70.1256 20.5022L66.7839 18.0743C66.3166 17.7348 65.6838 17.7348 65.2164 18.0743L61.8747 20.5022C60.8298 21.2614 59.4238 20.2399 59.823 19.0115L61.0994 15.0831C61.2779 14.5337 61.0823 13.9319 60.615 13.5924L57.2733 11.1645C56.2284 10.4053 56.7654 8.75245 58.057 8.75245L62.1876 8.75245C62.7652 8.75245 63.2772 8.3805 63.4557 7.83114L64.7321 3.90273Z" fill="#EFB921"/>
<path d="M91.3986 3.90273C91.7977 2.67432 93.5356 2.67432 93.9347 3.90273L95.2112 7.83114C95.3897 8.3805 95.9016 8.75245 96.4792 8.75245L100.61 8.75245C101.901 8.75245 102.438 10.4053 101.394 11.1645L98.0518 13.5924C97.5845 13.9319 97.389 14.5337 97.5675 15.0831L98.8439 19.0115C99.243 20.2399 97.837 21.2614 96.7921 20.5022L93.4504 18.0743C92.9831 17.7348 92.3503 17.7348 91.883 18.0743L88.5413 20.5022C87.4963 21.2614 86.0903 20.2399 86.4895 19.0115L87.7659 15.0831C87.9444 14.5337 87.7488 13.9319 87.2815 13.5924L83.9398 11.1645C82.8949 10.4053 83.4319 8.75245 84.7235 8.75245L88.8541 8.75245C89.4317 8.75245 89.9437 8.3805 90.1222 7.83114L91.3986 3.90273Z" fill="#EFB921"/>
<path d="M118.066 3.90273C118.465 2.67432 120.203 2.67432 120.602 3.90273L121.878 7.83114C122.057 8.3805 122.569 8.75245 123.146 8.75245L127.277 8.75245C128.568 8.75245 129.105 10.4053 128.061 11.1645L124.719 13.5924C124.251 13.9319 124.056 14.5337 124.234 15.0831L125.511 19.0115C125.91 20.2399 124.504 21.2614 123.459 20.5022L120.117 18.0743C119.65 17.7348 119.017 17.7348 118.55 18.0743L115.208 20.5022C114.163 21.2614 112.757 20.2399 113.156 19.0115L114.433 15.0831C114.611 14.5337 114.416 13.9319 113.949 13.5924L110.607 11.1645C109.562 10.4053 110.099 8.75245 111.391 8.75245L115.521 8.75245C116.099 8.75245 116.611 8.3805 116.789 7.83114L118.066 3.90273Z" fill="#EFB921"/>
</svg>
