<svg width="15" height="17" viewBox="0 0 15 17" fill="none" xmlns="http://www.w3.org/2000/svg">
<g clip-path="url(#clip0_1231_5392)">
<path d="M7.28602 16.9999C7.22527 16.9999 7.16434 16.9925 7.10521 16.9779C6.61991 16.8571 4.91509 16.3386 3.35064 14.735C2.36945 13.7294 1.59046 12.4673 1.03507 10.9839C0.348642 9.15041 0.000488281 6.96498 0.000488281 4.48845V2.81528C0.000488281 2.35329 0.333724 1.96924 0.759166 1.94099C2.16886 1.84746 3.53092 1.56318 4.80778 1.09612C5.75321 0.750461 6.46408 0.369531 6.89401 0.110772C7.13954 -0.0369239 7.43287 -0.0369239 7.67839 0.110772C8.10815 0.369336 8.81902 0.750266 9.76462 1.09612C11.0415 1.56318 12.4037 1.84727 13.8132 1.94099C14.2387 1.96924 14.5719 2.35329 14.5719 2.81528V4.48845C14.5719 6.96498 14.2238 9.15041 13.5372 10.9839C12.9818 12.4673 12.2028 13.7294 11.2216 14.735C9.65732 16.3382 7.95214 16.8571 7.46684 16.9779C7.40771 16.9927 7.34677 16.9999 7.28602 16.9999Z" fill="#171568"/>
<path d="M5.58595 11.9148L3.49631 9.64953C3.30201 9.4389 3.30201 9.09733 3.49631 8.88669L4.05242 8.28383C4.24672 8.0732 4.5618 8.0732 4.7561 8.28383L5.9377 9.56477L9.81719 5.35915C10.0115 5.14851 10.3266 5.14851 10.5209 5.35915L11.077 5.96201C11.2713 6.17264 11.2713 6.51421 11.077 6.72484L6.28963 11.9146C6.09533 12.1253 5.78025 12.1253 5.58595 11.9146V11.9148Z" fill="white"/>
</g>
<defs>
<clipPath id="clip0_1231_5392">
<rect width="14.5714" height="17" fill="white"/>
</clipPath>
</defs>
</svg>
